<svg width="1049" height="211" viewBox="0 0 1049 211" fill="none" xmlns="http://www.w3.org/2000/svg">
<path d="M1001.41 159.808C973.757 159.808 956.261 140.8 956.261 114.664C956.261 83.776 979.157 64.12 1005.94 64.12C1032.51 64.12 1048.49 83.776 1048.49 99.76C1048.49 110.128 1040.93 116.176 1029.7 116.176H983.261C979.157 116.176 977.213 118.336 978.293 122.008C980.669 134.104 991.469 142.528 1003.78 142.528C1015.01 142.528 1021.06 139.504 1029.05 133.024L1037.91 146.416C1027.76 156.136 1015.88 159.808 1001.41 159.808ZM980.237 96.52C978.293 100.84 980.669 103 984.557 103H1023.44C1027.33 103 1029.27 101.056 1028.41 97.168C1026.46 87.664 1017.82 80.968 1005.51 80.968C993.845 80.968 983.693 88.096 980.237 96.52Z" fill="#001675"/>
<path d="M873.201 157L890.913 66.928H912.729L912.297 68.872C911.217 73.84 916.401 77.08 920.937 72.544L922.449 71.032C926.769 66.496 932.169 64.12 939.729 64.12C943.401 64.12 946.641 64.552 949.665 65.416L945.345 86.584C942.537 85.72 939.729 85.504 936.921 85.504C919.209 85.504 907.113 95.656 903.441 114.88L895.233 157H873.201Z" fill="#001675"/>
<path d="M815.514 157L833.226 66.928H855.474L837.762 157H815.514ZM834.954 31.288C834.954 22 842.082 15.088 850.938 15.088C859.794 15.088 866.922 22 866.922 31.288C866.922 40.36 859.794 47.056 850.938 47.056C842.082 47.056 834.954 40.36 834.954 31.288Z" fill="#001675"/>
<path d="M696.233 157L726.905 0.400024H748.721L735.329 69.088C734.465 74.056 739.433 76.864 743.753 72.544L745.049 71.248C749.801 66.496 755.201 64.12 762.545 64.12C782.633 64.12 796.241 80.968 791.921 103.432L781.553 157H759.305L769.457 105.376C772.265 91.552 764.921 82.48 753.689 82.48C740.513 82.48 730.793 92.848 727.337 110.776L718.265 157H696.233Z" fill="#001675"/>
<path d="M618.717 116.176L622.389 97.168H680.493L677.038 116.176H618.717Z" fill="#001675"/>
<path d="M545.401 159.808C516.025 159.808 495.505 137.344 495.505 112.072C495.505 79.456 518.185 64.12 545.401 64.12C574.993 64.12 595.513 86.8 595.513 112.072C595.513 144.472 572.833 159.808 545.401 159.808ZM517.321 112.072C517.321 129.784 530.281 141.664 545.401 141.664C561.169 141.664 573.481 129.784 573.481 112.072C573.481 94.144 561.169 82.264 545.401 82.264C530.281 82.264 517.321 94.144 517.321 112.072Z" fill="#001675"/>
<path d="M453.942 159.376C432.126 159.16 423.27 145.12 426.51 129.136L434.07 89.176C434.718 85.72 433.206 83.776 429.75 83.776H413.118L416.358 66.928H433.206C436.662 66.928 439.038 64.984 439.686 61.528L443.358 42.088H464.742L461.07 61.528C460.422 64.984 461.934 66.928 465.39 66.928H485.046L481.59 83.776H461.934C458.478 83.776 456.102 85.72 455.454 89.176L448.326 126.112C446.598 135.184 452.43 140.8 461.718 140.8C464.526 140.8 467.118 140.584 469.926 140.152L466.47 157.864C461.934 159.16 457.83 159.592 453.942 159.376Z" fill="#001675"/>
<path d="M333.226 116.176L336.898 97.168H395.002L391.546 116.176H333.226Z" fill="#001675"/>
<path d="M245.142 177.088C248.598 172.12 250.974 165.208 249.894 158.728L233.262 66.928H257.886L262.638 129.784C263.286 136.696 269.982 137.128 272.79 130L299.358 66.928H325.062L248.598 211H221.814L245.142 177.088Z" fill="#001675"/>
<path d="M144.665 159.808C122.633 159.808 102.113 137.992 102.113 113.368C102.113 82.912 123.281 64.12 151.577 64.12C163.241 64.12 170.585 68.008 174.905 74.056L177.713 78.16C181.169 82.696 185.705 81.184 186.785 76.432L188.945 66.928H210.329L192.833 157H171.233L171.449 155.272C172.097 150.736 167.993 148.36 163.025 152.464L160.001 154.84C156.545 157.648 151.577 159.808 144.665 159.808ZM124.361 112.072C124.361 129.136 136.457 141.664 153.089 141.664C168.857 141.664 180.305 129.352 180.305 112.072C180.305 94.792 168.857 82.264 153.089 82.264C136.457 82.264 124.361 94.792 124.361 112.072Z" fill="#001675"/>
<path d="M0.696014 157L28.992 11.2H64.632C91.416 11.2 109.344 27.6159 109.344 50.5119C109.344 75.568 91.2 91.9839 57.72 91.9839H41.088C38.064 91.9839 35.472 94.36 34.824 97.384L23.376 157H0.696014ZM39.576 68.656C39.144 71.68 40.872 73.624 44.112 73.624H60.744C77.376 73.624 86.016 65.4159 86.016 52.0239C86.016 37.7679 76.512 30.208 60.744 30.208H52.536C49.296 30.208 46.704 32.368 46.056 35.6079L39.576 68.656Z" fill="#001675"/>
</svg>
